<!-- Generator: Adobe Illustrator 17.1.0, SVG Export Plug-In  -->
<svg version="1.1"
     xmlns="http://www.w3.org/2000/svg" xmlns:xlink="http://www.w3.org/1999/xlink" xmlns:a="http://ns.adobe.com/AdobeSVGViewerExtensions/3.0/"
     x="0px" y="0px" width="25.3px" height="25.7px" viewBox="0 0 25.3 25.7" enable-background="new 0 0 25.3 25.7"
     xml:space="preserve"> 
<defs>
</defs>
<path fill="#FFFFFF" d="M19.9,15.3c0,0-0.4,0.3-0.2-0.2c0,0,1.4-1.7,1.6-6.3c0,0,0-0.7,0.5-0.9c0,0,0.3,0,0.3,0.9
    C22.2,8.8,22.5,12.6,19.9,15.3"/>
<path fill="#FFFFFF" d="M21.1,16.5c0,0-0.4,0.3-0.2-0.2c0,0,1.5-1.6,2-6.1c0,0,0-0.7,0.6-0.9c0,0,0.3,0,0.3,1
    C23.8,10.2,23.8,14,21.1,16.5"/>
<path fill="#FFFFFF" d="M22.1,17.7c0,0-0.4,0.3-0.2-0.2c0,0,1.5-1.6,2-6.1c0,0,0-0.7,0.6-0.9c0,0,0.3,0,0.3,1
    C24.9,11.4,24.9,15.2,22.1,17.7"/>
<path fill="#FFFFFF" d="M0.7,19.6c0,0-0.8-1.1-0.4-1.7c0,0,0.3-0.4,1.3,0.5c0,0,1.3,1.3,4.1,1.3c0,0,4.2,1,7.7-7.2
    c0,0,0.4-0.9,0.7-0.9c0,0,0.3-0.1-0.1,1.2c0,0-2.2,9.2-8,9.6C6.1,22.2,3.2,22.4,0.7,19.6"/>
<path fill="#FFFFFF" d="M14.1,17.3c0,0,0.7-3.6,0.9-6.7c0,0,0.3-0.5,0.6-0.5c0,0,0.3,0,0.2,0.8c0,0-0.1,1.4-0.2,2.7
    c0,0-0.1,1.8,0.4,1.8c0,0,0.1,0,0.3-0.1c0,0,2-1.5,2.6-4.1c0,0,1.2-3.1,1.7-3.3c0,0,0.2-0.1,0.1,1.3c0,0-0.2,4.6-2.5,6.7
    c0,0,1.3,0.1,2.4,1.9c0,0,0.7,1.2,0.1,1.8c0,0-0.3,0.3-1.2-0.5c0,0-1.1-1.2-3-1c0,0-0.4,0.1-0.6,0.2c0,0-1.2,0.5-1.7,0.1
    C14.3,18.3,14,18,14.1,17.3"/>
<path fill="#FFFFFF" d="M24.9,14c0,0,0.3-1,0.4,0c0,0-0.1,7-6.3,10.4c0,0-2.8,1.7-7.7,1.2c0,0-4.1-0.5-5.1-1.3c0,0-0.1-0.3,0.3-0.4
    c0,0,3.9,1.4,7.1-1.4C13.5,22.5,21.4,25.7,24.9,14"/>
<path fill="#FFFFFF" d="M24.6,6.1c0,0,0.8,1.1,0.4,1.7c0,0-0.3,0.4-1.3-0.5c0,0-1.3-1.3-4.1-1.3c0,0-4.2-1-7.7,7.2
    c0,0-0.4,0.9-0.7,0.9c0,0-0.3,0.1,0.1-1.2c0,0,2.2-9.2,8-9.6C19.2,3.5,22,3.3,24.6,6.1"/>
<path fill="#FFFFFF" d="M11.1,8.4c0,0-0.7,3.6-0.9,6.7c0,0-0.3,0.5-0.6,0.5c0,0-0.3,0-0.2-0.8c0,0,0.1-1.4,0.2-2.7
    c0,0,0.1-1.8-0.4-1.8c0,0-0.1,0-0.3,0.1c0,0-2,1.5-2.6,4.1c0,0-1.2,3.1-1.7,3.3c0,0-0.2,0.1-0.1-1.3c0,0,0.2-4.6,2.5-6.7
    c0,0-1.3-0.1-2.4-1.9c0,0-0.7-1.2-0.1-1.8c0,0,0.3-0.3,1.2,0.5c0,0,1.1,1.2,3,1c0,0,0.4-0.1,0.6-0.2c0,0,1.2-0.5,1.7-0.1
    C10.9,7.4,11.3,7.6,11.1,8.4"/>
<path fill="#FFFFFF" d="M5.4,10.4c0,0,0.4-0.3,0.2,0.2c0,0-1.4,1.7-1.6,6.3c0,0,0,0.7-0.5,0.9c0,0-0.3,0-0.3-0.9
    C3.1,16.8,2.8,13.1,5.4,10.4"/>
<path fill="#FFFFFF" d="M4.2,9.2c0,0,0.4-0.3,0.2,0.2c0,0-1.5,1.6-2,6.1c0,0,0,0.7-0.6,0.9c0,0-0.3,0-0.3-1
    C1.5,15.5,1.4,11.7,4.2,9.2"/>
<path fill="#FFFFFF" d="M3.1,8c0,0,0.4-0.3,0.2,0.2c0,0-1.5,1.6-2,6.1c0,0,0,0.7-0.6,0.9c0,0-0.3,0-0.3-1C0.4,14.3,0.3,10.5,3.1,8"
    />
<path fill="#FFFFFF" d="M0.4,11.7c0,0-0.3,1-0.4,0c0,0,0.1-7,6.3-10.4c0,0,2.8-1.7,7.7-1.2c0,0,4.1,0.5,5.1,1.3c0,0,0.1,0.3-0.3,0.4
    c0,0-3.9-1.4-7.1,1.4C11.7,3.2,3.9,0,0.4,11.7"/>
</svg>
