<!-- Generator: Adobe Illustrator 17.1.0, SVG Export Plug-In  -->
<svg version="1.1"
     xmlns="http://www.w3.org/2000/svg" xmlns:xlink="http://www.w3.org/1999/xlink" xmlns:a="http://ns.adobe.com/AdobeSVGViewerExtensions/3.0/"
     x="0px" y="0px" width="17.2px" height="14px" viewBox="0 0 17.2 14" preserveAspectRatio="none" enable-background="new 0 0 17.2 14" xml:space="preserve">
<defs>
</defs>
<path fill="#FFFFFF" d="M11.9,0C9.9,0,8.4,1.6,8.4,3.5c0,0.3,0,0.5,0.1,0.8C5.5,4.2,2.9,2.8,1.2,0.6C0.9,1.2,0.7,1.8,0.7,2.4
    c0,1.2,0.6,2.3,1.6,2.9c-0.6,0-1.1-0.2-1.6-0.4c0,0,0,0,0,0c0,1.7,1.2,3.1,2.8,3.5C3.2,8.5,2.9,8.5,2.6,8.5c-0.2,0-0.4,0-0.7-0.1
    c0.4,1.4,1.8,2.4,3.3,2.5c-1.2,0.9-2.7,1.5-4.4,1.5c-0.3,0-0.6,0-0.8,0c1.6,1,3.4,1.6,5.4,1.6c6.5,0,10-5.4,10-10c0-0.2,0-0.3,0-0.5
    c0.7-0.5,1.3-1.1,1.8-1.8c-0.6,0.3-1.3,0.5-2,0.6c0.7-0.4,1.3-1.1,1.5-2C16,0.7,15.3,1,14.5,1.1C13.8,0.4,12.9,0,11.9,0"/>
</svg>
