
<svg version="1.1"
	 xmlns="http://www.w3.org/2000/svg" xmlns:xlink="http://www.w3.org/1999/xlink" 
	 x="0px" y="0px"  viewBox="0 0 418.1 418.1" enable-background="new 0 0 418.1 418.1"
	 xml:space="preserve">
<defs>
</defs>
<path fill="#97999D" d="M418.1,209.1c0,115.5-93.6,209.1-209.1,209.1C93.6,418.1,0,324.5,0,209.1C0,93.6,93.6,0,209.1,0
	C324.5,0,418.1,93.6,418.1,209.1"/>
<path fill="#403308" d="M113.9,221.9L113.9,221.9c-8.4,0-15.2-6.8-15.2-15.2v-36.4c0-8.4,6.8-15.2,15.2-15.2
	c8.4,0,15.2,6.8,15.2,15.2v36.4C129.1,215.1,122.2,221.9,113.9,221.9"/>
<path fill="#403308" d="M304.2,221.9L304.2,221.9c-8.4,0-15.2-6.8-15.2-15.2v-36.4c0-8.4,6.8-15.2,15.2-15.2
	c8.4,0,15.2,6.8,15.2,15.2v36.4C319.4,215.1,312.6,221.9,304.2,221.9"/>
<path fill="#403308" d="M328.8,277.9H89.3c-5,0-9.1-4.1-9.1-9.1c0-5,4.1-9.1,9.1-9.1h239.4c5,0,9.1,4.1,9.1,9.1
	C337.9,273.8,333.8,277.9,328.8,277.9"/>
</svg>
