<svg version="1.1"
	 xmlns="http://www.w3.org/2000/svg" xmlns:xlink="http://www.w3.org/1999/xlink" 
	 x="0px" y="0px" viewBox="0 0 418.1 418.1" enable-background="new 0 0 418.1 418.1"
	 xml:space="preserve">
<defs>
</defs>
<path fill="#A7D0B1" d="M418.1,209.1c0,115.5-93.6,209.1-209.1,209.1C93.6,418.1,0,324.5,0,209.1C0,93.6,93.6,0,209.1,0
	C324.5,0,418.1,93.6,418.1,209.1"/>
<path fill="#403308" d="M274.1,203.7c-5.8,0-10.6-4.7-10.6-10.5c0-2,0.1-20.3,12.3-32.7c6.8-6.9,16-10.5,26.8-10.5
	c10.8,0,20.1,3.6,26.8,10.5c12.1,12.3,12.1,30.4,12,32.5c-0.1,5.9-4.9,10.5-10.8,10.4c-5.9-0.1-10.5-5-10.4-10.8c0-3-1-12.2-6-17.2
	c-2.7-2.8-6.5-4.1-11.6-4.1c-5.1,0-8.9,1.4-11.7,4.2c-6.1,6.1-6.2,17.4-6.2,17.5c0.1,5.9-4.6,10.7-10.5,10.8H274.1z"/>
<path fill="#403308" d="M87.3,203.7c-5.8,0-10.6-4.7-10.6-10.5c0-2,0.1-20.3,12.3-32.7c6.8-6.9,16-10.5,26.8-10.5
	c10.8,0,20.1,3.6,26.8,10.5c12.1,12.3,12.1,30.4,12,32.5c-0.1,5.9-5,10.5-10.8,10.4c-5.9-0.1-10.5-5-10.4-10.8c0-3-1-12.2-6-17.2
	c-2.7-2.8-6.5-4.1-11.6-4.1c-5.1,0-8.9,1.4-11.6,4.2c-6.1,6.1-6.2,17.4-6.2,17.5c0.1,5.9-4.6,10.7-10.5,10.8H87.3z"/>
<path fill="#403308" d="M208.7,330c-53.4,0-78.8-41.1-84.8-62.8c-1.6-5.7,1.8-11.5,7.4-13.1c5.7-1.6,11.5,1.8,13.1,7.4
	c0.5,1.9,14,47.2,64.3,47.2c50.8,0,64.9-47.2,65-47.7c1.6-5.6,7.5-8.9,13.1-7.3c5.6,1.6,8.9,7.5,7.3,13.1
	C288,288.7,262.1,330,208.7,330"/>
</svg>
