<!-- Generator: Adobe Illustrator 17.1.0, SVG Export Plug-In  -->
<svg version="1.1"
	 xmlns="http://www.w3.org/2000/svg" xmlns:xlink="http://www.w3.org/1999/xlink" xmlns:a="http://ns.adobe.com/AdobeSVGViewerExtensions/3.0/"
	 x="0px" y="0px"  viewBox="0 0 270.1 379.3" enable-background="new 0 0 270.1 379.3"
	 xml:space="preserve">
<defs>
</defs>
<polygon fill="#FFFFFF" points="2.1,377.6 2.1,283.7 73.3,283.7 73.3,308.5 30.5,308.5 30.5,317.8 72.3,317.8 72.3,342.5 
	30.5,342.5 30.5,377.6 "/>
<path fill="#FFFFFF" d="M80.3,330.7c0-30.1,23.2-48.6,51.6-48.6c22.4,0,35.3,12.4,41.2,24.5l-23.9,12.2c-2.7-5.8-8.9-11.7-17.3-11.7
	c-13.7,0-22.8,10.4-22.8,23.5c0,13.1,9.1,23.5,22.8,23.5c5.3,0,11.7-2,14.6-4.2v-3.4h-17.5v-24.8h45.7v38.4
	c-10.4,11.5-24.5,19-42.9,19C103.5,379.3,80.3,360.7,80.3,330.7"/>
<path fill="#FFFFFF" d="M239.8,315.9c0-5.1-3.8-7.5-8.6-7.5h-18v14.8h18C236,323.3,239.8,320.9,239.8,315.9 M184.7,377.6v-93.9h50.1
	c22,0,33.8,14.6,33.8,32.2c0,17.5-11.8,32.1-33.8,32.1h-21.7v29.6H184.7z"/>
<path fill="#FFFFFF" d="M267.4,83.3C244.3,34.1,194.3,0,136.3,0s-108,34.1-131,83.3c-29.2,68.6,69.4,89.3,131,18.8
	C193.2,37.2,248.4,58.9,267.4,83.3"/>
<path fill="#FFFFFF" d="M266.9,86c-2.2-2.6-4.7-4.9-7.3-7c-2.6-2.1-5.4-4-8.3-5.7c-5.8-3.3-12.1-5.9-18.5-7.4
	c-12.9-3.2-26.6-2.4-39.1,1.5c-3.1,1-6.2,2.1-9.3,3.5c-3,1.3-6,2.8-8.9,4.4c-2.1,1.2-4.1,2.4-6.1,3.8c7.9,2.6,15.9,6.9,26.8,14.5
	C244,126.6,278.5,113.2,266.9,86"/>
<path fill="#FFFFFF" d="M222.3,149.9v-3.3c0-1.4-0.4-7.7,4.7-8.9l0,0c4.8,2.1,8.2,6.7,8.4,12.1H222.3z M222.3,164.7V153v-0.2h13
	C234.3,159.3,228.9,164.3,222.3,164.7 M218.4,143.7v20.6c-6.3-1.4-10.9-7-10.9-13.7c0-7.7,6.3-14,14-14c1.1,0,2.2,0.1,3.2,0.4
	l-0.1,0C221.4,137.9,218.4,140,218.4,143.7 M133.8,162.1c-56.9,65-112.1,43.2-131,18.8c23.1,49.2,73.1,83.3,131,83.3
	c58,0,108-34.1,131-83.3C294.1,112.3,195.5,91.7,133.8,162.1"/>
<path fill="#FFFFFF" d="M11,185.2c2.6,2.1,5.5,4.1,8.4,5.7c5.9,3.4,12.2,5.9,18.7,7.4c13.1,3.2,26.8,2.3,39.4-1.8
	c3.2-1,6.3-2.2,9.3-3.6c3-1.4,6-2.9,8.9-4.5c1.9-1.1,3.7-2.2,5.4-3.4c-7.9-2.6-15.9-6.9-26.8-14.5C26.5,137.4-8,150.9,3.6,178.1
	C5.9,180.7,8.3,183,11,185.2"/>
</svg>
