
<svg version="1.1"
	 xmlns="http://www.w3.org/2000/svg" xmlns:xlink="http://www.w3.org/1999/xlink" xmlns:a="http://ns.adobe.com/AdobeSVGViewerExtensions/3.0/"
	 x="0px" y="0px"  viewBox="0 0 418.1 418.1" enable-background="new 0 0 418.1 418.1"
	 xml:space="preserve">
<defs>
</defs>
<path fill="#B9433B" d="M418.1,209.1c0,115.5-93.6,209.1-209.1,209.1C93.6,418.1,0,324.5,0,209.1C0,93.6,93.6,0,209.1,0
	C324.5,0,418.1,93.6,418.1,209.1"/>
<path fill="#403308" d="M98,200.9c-4.6,0-9.1-2.4-11.5-6.7c-3.6-6.4-1.4-14.4,5-18l29.5-16.7l-29.9-17c-6.4-3.6-8.6-11.7-5-18
	c3.6-6.4,11.7-8.6,18-5l50.2,28.5c4.1,2.4,6.7,6.7,6.7,11.5c0,4.8-2.6,9.2-6.7,11.5l-49.8,28.2C102.4,200.4,100.2,200.9,98,200.9"/>
<path fill="#403308" d="M320.5,200.8c-2.2,0-4.5-0.6-6.6-1.8l-49-28.5c-4-2.3-6.5-6.6-6.5-11.3c0-4.7,2.5-9,6.5-11.3l48.6-28.2
	c6.3-3.6,14.3-1.5,17.9,4.7c3.6,6.3,1.5,14.3-4.7,17.9l-29.2,16.9l29.5,17.2c6.2,3.6,8.4,11.6,4.7,17.9
	C329.4,198.5,325,200.8,320.5,200.8"/>
<path fill="#403308" d="M134.1,302.3c-1,0-2-0.1-3-0.4c-5.6-1.6-8.9-7.5-7.3-13.1c6.2-21.8,32.1-63.1,85.5-63.1
	c53.4,0,78.8,41.1,84.8,62.8c1.6,5.7-1.8,11.5-7.4,13.1c-5.7,1.6-11.5-1.8-13.1-7.4c-0.5-1.9-14-47.2-64.3-47.2
	c-50.4,0-64.5,45.8-65,47.8C143,299.3,138.7,302.3,134.1,302.3"/>
</svg>
