<?xml version="1.0" encoding="UTF-8"?>
<!DOCTYPE svg PUBLIC "-//W3C//DTD SVG 1.1//EN" "http://www.w3.org/Graphics/SVG/1.1/DTD/svg11.dtd">
<svg xmlns="http://www.w3.org/2000/svg" xmlns:xlink="http://www.w3.org/1999/xlink" xmlns:a="http://ns.adobe.com/AdobeSVGViewerExtensions/3.0/" xmlns:dc="http://purl.org/dc/elements/1.1/" xmlns:cc="http://creativecommons.org/ns#" xmlns:rdf="http://www.w3.org/1999/02/22-rdf-syntax-ns#" xmlns:svg="http://www.w3.org/2000/svg">
	<defs>





<clipPath id="clipPath18" clipPathUnits="userSpaceOnUse"><path id="path16" d="M 0,511.999 H 370.854 V 0 H 0 Z"/></clipPath>
<clipPath id="clipPath18" clipPathUnits="userSpaceOnUse"><path id="path16" d="M 0,41.999 H 31 V 0 H 0 Z"/></clipPath>
<clipPath id="clipPath18" clipPathUnits="userSpaceOnUse"><path id="path16" d="M 0,27.442 H 15.54 V 0 H 0 Z"/></clipPath><clipPath id="clipPath18" clipPathUnits="userSpaceOnUse"><path id="path16" d="M 0,481.078 H 481.081 V 0 H 0 Z"/></clipPath><clipPath id="clipPath18" clipPathUnits="userSpaceOnUse"><path id="path16" d="M 0,30 H 30 V 0 H 0 Z"/></clipPath><clipPath id="clipPath18" clipPathUnits="userSpaceOnUse"><path id="path16" d="M 0,30 H 30 V 0 H 0 Z"/></clipPath><clipPath id="clipPath18" clipPathUnits="userSpaceOnUse"><path id="path16" d="M 0,30 H 30 V 0 H 0 Z"/></clipPath><clipPath id="clipPath18" clipPathUnits="userSpaceOnUse"><path id="path16" d="M 0,30 H 30 V 0 H 0 Z"/></clipPath><clipPath id="clipPath18" clipPathUnits="userSpaceOnUse"><path id="path16" d="M 0,30 H 30 V 0 H 0 Z"/></clipPath><clipPath id="clipPath18" clipPathUnits="userSpaceOnUse"><path id="path16" d="M 0,30 H 30 V 0 H 0 Z"/></clipPath><clipPath id="clipPath18" clipPathUnits="userSpaceOnUse"><path id="path16" d="M 0,30 H 30 V 0 H 0 Z"/></clipPath><clipPath id="clipPath18" clipPathUnits="userSpaceOnUse"><path id="path16" d="M 0,30 H 30 V 0 H 0 Z"/></clipPath><clipPath id="clipPath18" clipPathUnits="userSpaceOnUse"><path id="path16" d="M 0,30 H 30 V 0 H 0 Z"/></clipPath><clipPath id="clipPath18" clipPathUnits="userSpaceOnUse"><path id="path16" d="M 0,30 H 30 V 0 H 0 Z"/></clipPath><clipPath id="clipPath18" clipPathUnits="userSpaceOnUse"><path id="path16" d="M 0,30 H 30 V 0 H 0 Z"/></clipPath><clipPath id="clipPath18" clipPathUnits="userSpaceOnUse"><path id="path16" d="M 0,29.109 H 30 V 0 H 0 Z"/></clipPath><clipPath id="clipPath18" clipPathUnits="userSpaceOnUse"><path id="path16" d="M 0,30 H 30 V 0 H 0 Z"/></clipPath><clipPath id="clipPath18" clipPathUnits="userSpaceOnUse"><path id="path16" d="M 0,30 H 30 V 0 H 0 Z"/></clipPath><clipPath id="clipPath18" clipPathUnits="userSpaceOnUse"><path id="path16" d="M 0,30 H 30 V 0 H 0 Z"/></clipPath>
</defs>
<symbol id="book" viewBox="0 0 32 31.5">

<rect x="0.5" y="4" fill="none" stroke="#5DA3D3" width="31" height="27"/>
<line fill="none" stroke="#5DA3D3" x1="0" y1="11" x2="32" y2="11"/>
<line fill="none" stroke="#5DA3D3" x1="8.5" y1="0" x2="8.5" y2="7"/>
<line fill="none" stroke="#5DA3D3" x1="23.5" y1="0" x2="23.5" y2="7"/>
<polyline fill="none" stroke="#5DA3D3" points="9,19.8 14,24.8 23.6,15.1 "/>
</symbol>
<symbol id="contact-ico-1" viewBox="0 0 64 56">

<rect x="1" y="1" fill="none" stroke="#5DA3D3" stroke-width="2" width="62" height="54"/>
<rect x="8.2" y="7.2" fill="none" stroke="#5DA3D3" stroke-width="2" width="11.6" height="18.1"/>
<rect x="26.2" y="7.2" fill="none" stroke="#5DA3D3" stroke-width="2" width="11.6" height="18.1"/>
<rect x="44.2" y="7.2" fill="none" stroke="#5DA3D3" stroke-width="2" width="11.6" height="18.1"/>
<rect x="8.2" y="30.7" fill="none" stroke="#5DA3D3" stroke-width="2" width="11.6" height="18.1"/>
<rect x="26.2" y="30.7" fill="none" stroke="#5DA3D3" stroke-width="2" width="11.6" height="18.1"/>
<rect x="44.2" y="30.7" fill="none" stroke="#5DA3D3" stroke-width="2" width="11.6" height="18.1"/>
</symbol>
<symbol id="contact-ico-2" viewBox="0 0 64 63">

<rect x="1" y="8" fill="none" stroke="#5DA3D3" stroke-width="2" width="62" height="54"/>
<line fill="none" stroke="#5DA3D3" stroke-width="2" x1="0" y1="22" x2="64" y2="22"/>
<line fill="none" stroke="#5DA3D3" stroke-width="2" x1="17" y1="0" x2="17" y2="14"/>
<line fill="none" stroke="#5DA3D3" stroke-width="2" x1="47" y1="0" x2="47" y2="14"/>
<polyline fill="none" stroke="#5DA3D3" stroke-width="2" points="17.9,39.7 27.9,49.7 47.3,30.3 "/>
</symbol>
<symbol id="contact-ico-3" viewBox="0 0 44.1 59">

<path fill="#5DA3D3" d="M14.2,18.7L14.2,18.7L14.2,18.7z M42.1,50.2l-9.2-11.7L28.5,42h0l0,0c-0.3,0.2-0.7,0.1-0.9-0.2
	c-2.5-3.6-5-7.3-7.2-11.2l0,0c-2.2-3.9-4.3-7.9-6.1-11.9l0,0c-0.1-0.3,0-0.7,0.4-0.9l5.2-2L14.2,1.9L5.7,5.3
	C4.1,5.9,2.9,7.1,2.3,8.5c-0.6,1.4-0.7,3.1-0.1,4.7C5,20.7,8.5,28.1,12.5,35.1c4,7,8.7,13.7,13.8,19.9c1.1,1.3,2.6,2.1,4.1,2.2
	c1.6,0.2,3.2-0.3,4.5-1.3L42.1,50.2z M33.5,37.2l10.1,12.7c0.2,0.3,0.2,0.7-0.1,0.9L35.8,57c-1.6,1.3-3.6,1.8-5.5,1.6
	c-1.9-0.2-3.7-1.1-5-2.7c-5.1-6.3-9.8-13-13.9-20.1C7.3,28.7,3.8,21.3,0.9,13.7c-0.7-1.9-0.6-4,0.2-5.7c0.8-1.7,2.2-3.2,4.1-4
	l9.2-3.6c0.3-0.1,0.7,0,0.9,0.4l0,0l6,15.1c0.1,0.3,0,0.7-0.4,0.9h0l-5.1,2c1.7,3.7,3.7,7.5,5.8,11.1l0,0c2.1,3.6,4.3,7.2,6.7,10.5
	l4.3-3.4C32.8,36.8,33.2,36.8,33.5,37.2L33.5,37.2z"/>
<path fill="none" stroke="#5DA3D3" stroke-width="0.8" stroke-miterlimit="10" d="M14.2,18.7L14.2,18.7L14.2,18.7z M42.1,50.2
	l-9.2-11.7L28.5,42h0l0,0c-0.3,0.2-0.7,0.1-0.9-0.2c-2.5-3.6-5-7.3-7.2-11.2l0,0c-2.2-3.9-4.3-7.9-6.1-11.9l0,0
	c-0.1-0.3,0-0.7,0.4-0.9l5.2-2L14.2,1.9L5.7,5.3C4.1,5.9,2.9,7.1,2.3,8.5c-0.6,1.4-0.7,3.1-0.1,4.7C5,20.7,8.5,28.1,12.5,35.1
	c4,7,8.7,13.7,13.8,19.9c1.1,1.3,2.6,2.1,4.1,2.2c1.6,0.2,3.2-0.3,4.5-1.3L42.1,50.2z M33.5,37.2l10.1,12.7c0.2,0.3,0.2,0.7-0.1,0.9
	L35.8,57c-1.6,1.3-3.6,1.8-5.5,1.6c-1.9-0.2-3.7-1.1-5-2.7c-5.1-6.3-9.8-13-13.9-20.1C7.3,28.7,3.8,21.3,0.9,13.7
	c-0.7-1.9-0.6-4,0.2-5.7c0.8-1.7,2.2-3.2,4.1-4l9.2-3.6c0.3-0.1,0.7,0,0.9,0.4l0,0l6,15.1c0.1,0.3,0,0.7-0.4,0.9h0l-5.1,2
	c1.7,3.7,3.7,7.5,5.8,11.1l0,0c2.1,3.6,4.3,7.2,6.7,10.5l4.3-3.4C32.8,36.8,33.2,36.8,33.5,37.2L33.5,37.2z"/>
</symbol>
<symbol id="down-arrow" viewBox="0 0 44.2 23.6">

<line fill="none" stroke="#054360" stroke-width="3" stroke-linecap="round" x1="22.1" y1="22.1" x2="42.7" y2="1.5"/>
<line fill="none" stroke="#054360" stroke-width="3" stroke-linecap="round" x1="1.5" y1="1.5" x2="22.1" y2="22.1"/>
</symbol>
<symbol id="fb" viewBox="0 0 7.8 15.7">

<path fill="#FFFFFF" d="M5.1,15.7V8.6h2.3l0.3-2.8H5.1V4c0-0.8,0.2-1.4,1.3-1.4h1.4V0.1C7.6,0.1,6.7,0,5.7,0c-2,0-3.4,1.3-3.4,3.7
    v2.1H0v2.8h2.3v7.2H5.1z"/>
</symbol>
<symbol id="location" viewBox="0 0 494.47198 682.66534"><g transform="matrix(1.3333333,0,0,-1.3333333,0,682.66533)" id="g10"><g id="g12"><g clip-path="url(#clipPath18)" id="g14"><g transform="translate(185.427,233.2806)" id="g20"><path id="path22" style="fill:#000000;fill-opacity:1;fill-rule:nonzero;stroke:none" d="m 0,0 c -51.442,0 -93.292,41.851 -93.292,93.293 0,51.442 41.851,93.292 93.292,93.292 51.441,0 93.291,-41.851 93.291,-93.293 C 93.291,41.85 51.441,0 0,0 m 0,278.719 c -102.245,0 -185.427,-83.182 -185.427,-185.426 0,-126.889 165.939,-313.167 173.004,-321.035 6.636,-7.391 18.222,-7.378 24.846,0 7.065,7.868 173.004,194.146 173.004,321.035 C 185.425,195.537 102.244,278.719 0,278.719"/></g></g></g></g></symbol>
<symbol id="logofoot" viewBox="0 0 25.3 25.7"> 

<path fill="#FFFFFF" d="M19.9,15.3c0,0-0.4,0.3-0.2-0.2c0,0,1.4-1.7,1.6-6.3c0,0,0-0.7,0.5-0.9c0,0,0.3,0,0.3,0.9
    C22.2,8.8,22.5,12.6,19.9,15.3"/>
<path fill="#FFFFFF" d="M21.1,16.5c0,0-0.4,0.3-0.2-0.2c0,0,1.5-1.6,2-6.1c0,0,0-0.7,0.6-0.9c0,0,0.3,0,0.3,1
    C23.8,10.2,23.8,14,21.1,16.5"/>
<path fill="#FFFFFF" d="M22.1,17.7c0,0-0.4,0.3-0.2-0.2c0,0,1.5-1.6,2-6.1c0,0,0-0.7,0.6-0.9c0,0,0.3,0,0.3,1
    C24.9,11.4,24.9,15.2,22.1,17.7"/>
<path fill="#FFFFFF" d="M0.7,19.6c0,0-0.8-1.1-0.4-1.7c0,0,0.3-0.4,1.3,0.5c0,0,1.3,1.3,4.1,1.3c0,0,4.2,1,7.7-7.2
    c0,0,0.4-0.9,0.7-0.9c0,0,0.3-0.1-0.1,1.2c0,0-2.2,9.2-8,9.6C6.1,22.2,3.2,22.4,0.7,19.6"/>
<path fill="#FFFFFF" d="M14.1,17.3c0,0,0.7-3.6,0.9-6.7c0,0,0.3-0.5,0.6-0.5c0,0,0.3,0,0.2,0.8c0,0-0.1,1.4-0.2,2.7
    c0,0-0.1,1.8,0.4,1.8c0,0,0.1,0,0.3-0.1c0,0,2-1.5,2.6-4.1c0,0,1.2-3.1,1.7-3.3c0,0,0.2-0.1,0.1,1.3c0,0-0.2,4.6-2.5,6.7
    c0,0,1.3,0.1,2.4,1.9c0,0,0.7,1.2,0.1,1.8c0,0-0.3,0.3-1.2-0.5c0,0-1.1-1.2-3-1c0,0-0.4,0.1-0.6,0.2c0,0-1.2,0.5-1.7,0.1
    C14.3,18.3,14,18,14.1,17.3"/>
<path fill="#FFFFFF" d="M24.9,14c0,0,0.3-1,0.4,0c0,0-0.1,7-6.3,10.4c0,0-2.8,1.7-7.7,1.2c0,0-4.1-0.5-5.1-1.3c0,0-0.1-0.3,0.3-0.4
    c0,0,3.9,1.4,7.1-1.4C13.5,22.5,21.4,25.7,24.9,14"/>
<path fill="#FFFFFF" d="M24.6,6.1c0,0,0.8,1.1,0.4,1.7c0,0-0.3,0.4-1.3-0.5c0,0-1.3-1.3-4.1-1.3c0,0-4.2-1-7.7,7.2
    c0,0-0.4,0.9-0.7,0.9c0,0-0.3,0.1,0.1-1.2c0,0,2.2-9.2,8-9.6C19.2,3.5,22,3.3,24.6,6.1"/>
<path fill="#FFFFFF" d="M11.1,8.4c0,0-0.7,3.6-0.9,6.7c0,0-0.3,0.5-0.6,0.5c0,0-0.3,0-0.2-0.8c0,0,0.1-1.4,0.2-2.7
    c0,0,0.1-1.8-0.4-1.8c0,0-0.1,0-0.3,0.1c0,0-2,1.5-2.6,4.1c0,0-1.2,3.1-1.7,3.3c0,0-0.2,0.1-0.1-1.3c0,0,0.2-4.6,2.5-6.7
    c0,0-1.3-0.1-2.4-1.9c0,0-0.7-1.2-0.1-1.8c0,0,0.3-0.3,1.2,0.5c0,0,1.1,1.2,3,1c0,0,0.4-0.1,0.6-0.2c0,0,1.2-0.5,1.7-0.1
    C10.9,7.4,11.3,7.6,11.1,8.4"/>
<path fill="#FFFFFF" d="M5.4,10.4c0,0,0.4-0.3,0.2,0.2c0,0-1.4,1.7-1.6,6.3c0,0,0,0.7-0.5,0.9c0,0-0.3,0-0.3-0.9
    C3.1,16.8,2.8,13.1,5.4,10.4"/>
<path fill="#FFFFFF" d="M4.2,9.2c0,0,0.4-0.3,0.2,0.2c0,0-1.5,1.6-2,6.1c0,0,0,0.7-0.6,0.9c0,0-0.3,0-0.3-1
    C1.5,15.5,1.4,11.7,4.2,9.2"/>
<path fill="#FFFFFF" d="M3.1,8c0,0,0.4-0.3,0.2,0.2c0,0-1.5,1.6-2,6.1c0,0,0,0.7-0.6,0.9c0,0-0.3,0-0.3-1C0.4,14.3,0.3,10.5,3.1,8"/>
<path fill="#FFFFFF" d="M0.4,11.7c0,0-0.3,1-0.4,0c0,0,0.1-7,6.3-10.4c0,0,2.8-1.7,7.7-1.2c0,0,4.1,0.5,5.1,1.3c0,0,0.1,0.3-0.3,0.4
    c0,0-3.9-1.4-7.1,1.4C11.7,3.2,3.9,0,0.4,11.7"/>
</symbol>
<symbol id="play" viewBox="0 0 41.333332 55.998669"><g transform="matrix(1.3333333,0,0,-1.3333333,0,55.998667)" id="g10"><g id="g12"><g clip-path="url(#clipPath18)" id="g14"><g transform="translate(30.5684,21.8232)" id="g20"><path id="path22" style="fill:#000000;fill-opacity:1;fill-rule:nonzero;stroke:none" d="m 0,0 -29,20 c -0.307,0.211 -0.706,0.233 -1.033,0.062 -0.329,-0.173 -0.535,-0.513 -0.535,-0.885 v -40 c 0,-0.372 0.206,-0.713 0.535,-0.886 0.146,-0.076 0.305,-0.114 0.465,-0.114 0.199,0 0.397,0.059 0.568,0.177 l 29,20 c 0.271,0.187 0.432,0.494 0.432,0.823 C 0.432,-0.494 0.27,-0.187 0,0"/></g></g></g></g></symbol>
<symbol id="plus" viewBox="0 0 21.6 21.6">

<line fill="none" stroke="#FFFFFF" stroke-width="3" stroke-linecap="round" x1="1.5" y1="20.1" x2="20.1" y2="1.5"/>
<line fill="none" stroke="#FFFFFF" stroke-width="3" stroke-linecap="round" x1="20.1" y1="20.1" x2="1.5" y2="1.5"/>
</symbol>
<symbol id="tel" viewBox="0 0 20.719999 36.589333"><g transform="matrix(1.3333333,0,0,-1.3333333,0,36.589333)" id="g10"><g id="g12"><g clip-path="url(#clipPath18)" id="g14"><path id="path20" style="fill:#000000;fill-opacity:1;fill-rule:nonzero;stroke:none" d="M 14.044,6.342 H 1.497 V 24.069 H 14.044 Z M 7.771,1.973 c -0.703,0 -1.275,0.572 -1.275,1.276 0,0.704 0.572,1.274 1.275,1.274 0.701,0 1.273,-0.57 1.273,-1.274 0,-0.704 -0.572,-1.276 -1.273,-1.276 m -2.85,24.255 h 5.7 c 0.144,0 0.261,-0.215 0.261,-0.481 0,-0.266 -0.117,-0.482 -0.261,-0.482 h -5.7 c -0.145,0 -0.26,0.216 -0.26,0.482 0,0.266 0.115,0.481 0.26,0.481 m 8.622,1.214 H 1.997 C 0.892,27.442 0,26.546 0,25.443 V 1.997 C 0,0.895 0.892,0 1.997,0 h 11.546 c 1.103,0 1.997,0.895 1.997,1.997 v 23.446 c 0,1.103 -0.894,1.999 -1.997,1.999"/></g></g></g></symbol>
<symbol id="ticket" viewBox="0 0 641.44135 641.43732"><g transform="matrix(1.3333333,0,0,-1.3333333,0,641.43733)" id="g10"><g style="fill:#000000" id="g12"><g style="fill:#000000" clip-path="url(#clipPath18)" id="g14"><g style="fill:#000000" transform="translate(393.1445,264.3778)" id="g20"><path id="path22" style="fill:#000000;fill-opacity:1;fill-rule:nonzero;stroke:none" d="m 0,0 -176.442,-176.437 c -3.423,-3.434 -7.705,-5.145 -12.848,-5.145 -5.137,0 -9.418,1.711 -12.845,5.145 l -103.357,103.345 c -3.616,3.621 -5.424,7.903 -5.424,12.847 0,4.949 1.808,9.236 5.424,12.854 L -129.05,129.05 c 3.43,3.427 7.714,5.142 12.855,5.142 5.133,0 9.418,-1.715 12.846,-5.142 L 0.002,25.697 C 3.622,22.078 5.43,17.795 5.43,12.847 5.428,7.9 3.621,3.618 0,0 M 77.375,57.1 41.398,92.788 C 30.741,82.132 17.795,76.8 2.57,76.8 c -15.228,0 -28.168,5.332 -38.824,15.988 -10.664,10.66 -15.987,23.601 -15.987,38.83 0,15.23 5.331,28.171 15.987,38.832 l -35.692,35.688 c -7.05,7.04 -15.66,10.562 -25.838,10.562 -10.185,0 -18.794,-3.523 -25.837,-10.562 l -258.958,-258.67 c -7.045,-7.046 -10.566,-15.663 -10.566,-25.837 0,-10.182 3.521,-18.791 10.566,-25.838 l 35.688,-35.977 c 10.661,10.657 23.604,15.988 38.831,15.988 15.227,0 28.167,-5.325 38.827,-15.988 10.656,-10.657 15.986,-23.6 15.986,-38.828 0,-15.228 -5.327,-28.164 -15.986,-38.828 l 35.976,-35.973 c 7.044,-7.043 15.657,-10.565 25.84,-10.565 10.185,0 18.798,3.522 25.837,10.565 L 77.375,5.426 C 84.418,12.468 87.937,21.079 87.937,31.263 87.936,41.446 84.418,50.056 77.375,57.1"/></g><g style="fill:#000000" transform="translate(276.9551,367.4398)" id="g24"><path id="path26" style="fill:#000000;fill-opacity:1;fill-rule:nonzero;stroke:none" d="m 0,0 90.223,-90.218 -163.308,-163.308 -90.218,90.218 z"/></g></g></g></g></symbol>
<symbol id="time-10-45" viewBox="0 0 40 40"><metadata id="metadata8"><rdf:RDF><cc:Work rdf:about=""><dc:format>image/svg+xml</dc:format><dc:type rdf:resource="http://purl.org/dc/dcmitype/StillImage"/><dc:title/></cc:Work></rdf:RDF></metadata><g transform="matrix(1.3333333,0,0,-1.3333333,0,40)" id="g10"><g id="g12"><g clip-path="url(#clipPath18)" id="g14"><g transform="translate(15.0001,3.1918)" id="g20"><path id="path22" style="fill:#000000;fill-opacity:1;fill-rule:nonzero;stroke:none" d="m 0,0 c -6.511,0 -11.809,5.297 -11.809,11.808 0,6.511 5.298,11.808 11.809,11.808 6.511,0 11.809,-5.297 11.809,-11.808 C 11.809,5.297 6.511,0 0,0 m 0,26.808 c -8.271,0 -15,-6.729 -15,-15 0,-8.271 6.729,-15 15,-15 8.271,0 15,6.729 15,15 0,8.271 -6.729,15 -15,15"/></g><g transform="translate(5.8306,15.122)" id="g24"><path id="path26" style="fill:none;stroke:#000000;stroke-width:2.76399994;stroke-linecap:round;stroke-linejoin:round;stroke-miterlimit:10;stroke-dasharray:none;stroke-opacity:1" d="M 0,0 9.117,-0.04 4.269,4.24"/></g></g></g></g></symbol>
<symbol id="time-11-15" viewBox="0 0 40 40"><metadata id="metadata8"><rdf:RDF><cc:Work rdf:about=""><dc:format>image/svg+xml</dc:format><dc:type rdf:resource="http://purl.org/dc/dcmitype/StillImage"/><dc:title/></cc:Work></rdf:RDF></metadata><g transform="matrix(1.3333333,0,0,-1.3333333,0,40)" id="g10"><g id="g12"><g clip-path="url(#clipPath18)" id="g14"><g transform="translate(15.0001,3.1919)" id="g20"><path id="path22" style="fill:#000000;fill-opacity:1;fill-rule:nonzero;stroke:none" d="m 0,0 c -6.511,0 -11.809,5.297 -11.809,11.808 0,6.511 5.298,11.808 11.809,11.808 6.511,0 11.809,-5.297 11.809,-11.808 C 11.809,5.297 6.511,0 0,0 m 0,26.808 c -8.271,0 -15,-6.729 -15,-15 0,-8.271 6.729,-15 15,-15 8.271,0 15,6.729 15,15 0,8.271 -6.729,15 -15,15"/></g><g transform="translate(23.4654,15.1221)" id="g24"><path id="path26" style="fill:none;stroke:#000000;stroke-width:2.76399994;stroke-linecap:round;stroke-linejoin:round;stroke-miterlimit:10;stroke-dasharray:none;stroke-opacity:1" d="m 0,0 -8.518,-0.04 -3.443,5.701"/></g></g></g></g></symbol>
<symbol id="time-12-30" viewBox="0 0 40 40"><metadata id="metadata8"><rdf:RDF><cc:Work rdf:about=""><dc:format>image/svg+xml</dc:format><dc:type rdf:resource="http://purl.org/dc/dcmitype/StillImage"/><dc:title/></cc:Work></rdf:RDF></metadata><g transform="matrix(1.3333333,0,0,-1.3333333,0,40)" id="g10"><g id="g12"><g clip-path="url(#clipPath18)" id="g14"><g transform="translate(15.0001,3.1919)" id="g20"><path id="path22" style="fill:#000000;fill-opacity:1;fill-rule:nonzero;stroke:none" d="m 0,0 c -6.511,0 -11.809,5.297 -11.809,11.808 0,6.511 5.298,11.808 11.809,11.808 6.511,0 11.809,-5.297 11.809,-11.808 C 11.809,5.297 6.511,0 0,0 m 0,26.808 c -8.271,0 -15,-6.729 -15,-15 0,-8.271 6.729,-15 15,-15 8.271,0 15,6.729 15,15 0,8.271 -6.729,15 -15,15"/></g><g transform="translate(15.0318,5.7691)" id="g24"><path id="path26" style="fill:none;stroke:#000000;stroke-width:2.76399994;stroke-linecap:round;stroke-linejoin:round;stroke-miterlimit:10;stroke-dasharray:none;stroke-opacity:1" d="m 0,0 -0.084,9.313 1.499,6.333"/></g></g></g></g></symbol>
<symbol id="time-13-30" viewBox="0 0 40 40"><metadata id="metadata8"><rdf:RDF><cc:Work rdf:about=""><dc:format>image/svg+xml</dc:format><dc:type rdf:resource="http://purl.org/dc/dcmitype/StillImage"/><dc:title/></cc:Work></rdf:RDF></metadata><g transform="matrix(1.3333333,0,0,-1.3333333,0,40)" id="g10"><g id="g12"><g clip-path="url(#clipPath18)" id="g14"><g transform="translate(15.0001,3.1919)" id="g20"><path id="path22" style="fill:#000000;fill-opacity:1;fill-rule:nonzero;stroke:none" d="m 0,0 c -6.511,0 -11.809,5.297 -11.809,11.808 0,6.511 5.298,11.808 11.809,11.808 6.511,0 11.809,-5.297 11.809,-11.808 C 11.809,5.297 6.511,0 0,0 m 0,26.808 c -8.271,0 -15,-6.729 -15,-15 0,-8.271 6.729,-15 15,-15 8.271,0 15,6.729 15,15 0,8.271 -6.729,15 -15,15"/></g><g transform="translate(15.0318,5.769)" id="g24"><path id="path26" style="fill:none;stroke:#000000;stroke-width:2.76399994;stroke-linecap:round;stroke-linejoin:round;stroke-miterlimit:10;stroke-dasharray:none;stroke-opacity:1" d="M 0,0 -0.084,9.313 3.511,14.87"/></g></g></g></g></symbol>
<symbol id="time-14-15" viewBox="0 0 40 40"><metadata id="metadata8"><rdf:RDF><cc:Work rdf:about=""><dc:format>image/svg+xml</dc:format><dc:type rdf:resource="http://purl.org/dc/dcmitype/StillImage"/><dc:title/></cc:Work></rdf:RDF></metadata><g transform="matrix(1.3333333,0,0,-1.3333333,0,40)" id="g10"><g id="g12"><g clip-path="url(#clipPath18)" id="g14"><g transform="translate(15.0001,3.1919)" id="g20"><path id="path22" style="fill:#000000;fill-opacity:1;fill-rule:nonzero;stroke:none" d="m 0,0 c -6.511,0 -11.809,5.297 -11.809,11.808 0,6.511 5.298,11.808 11.809,11.808 6.511,0 11.809,-5.297 11.809,-11.808 C 11.809,5.297 6.511,0 0,0 m 0,26.808 c -8.271,0 -15,-6.729 -15,-15 0,-8.271 6.729,-15 15,-15 8.271,0 15,6.729 15,15 0,8.271 -6.729,15 -15,15"/></g><g transform="translate(23.7823,15.1221)" id="g24"><path id="path26" style="fill:none;stroke:#000000;stroke-width:2.76399994;stroke-linecap:round;stroke-linejoin:round;stroke-miterlimit:10;stroke-dasharray:none;stroke-opacity:1" d="m 0,0 -8.835,-0.04 5.797,3.06"/></g></g></g></g></symbol>
<symbol id="time-14-45" viewBox="0 0 40 40"><metadata id="metadata8"><rdf:RDF><cc:Work rdf:about=""><dc:format>image/svg+xml</dc:format><dc:type rdf:resource="http://purl.org/dc/dcmitype/StillImage"/><dc:title/></cc:Work></rdf:RDF></metadata><g transform="matrix(1.3333333,0,0,-1.3333333,0,40)" id="g10"><g id="g12"><g clip-path="url(#clipPath18)" id="g14"><g transform="translate(15.0001,3.1917)" id="g20"><path id="path22" style="fill:#000000;fill-opacity:1;fill-rule:nonzero;stroke:none" d="m 0,0 c -6.511,0 -11.809,5.297 -11.809,11.808 0,6.512 5.298,11.809 11.809,11.809 6.511,0 11.809,-5.297 11.809,-11.809 C 11.809,5.297 6.511,0 0,0 m 0,26.808 c -8.271,0 -15,-6.729 -15,-15 0,-8.271 6.729,-15 15,-15 8.271,0 15,6.729 15,15 0,8.271 -6.729,15 -15,15"/></g><g transform="translate(5.9883,15.1219)" id="g24"><path id="path26" style="fill:none;stroke:#000000;stroke-width:2.76399994;stroke-linecap:round;stroke-linejoin:round;stroke-miterlimit:10;stroke-dasharray:none;stroke-opacity:1" d="m 0,0 8.959,-0.04 6.253,1.883"/></g></g></g></g></symbol>
<symbol id="time-15-15" viewBox="0 0 40 40"><metadata id="metadata8"><rdf:RDF><cc:Work rdf:about=""><dc:format>image/svg+xml</dc:format><dc:type rdf:resource="http://purl.org/dc/dcmitype/StillImage"/><dc:title/></cc:Work></rdf:RDF></metadata><g transform="matrix(1.3333333,0,0,-1.3333333,0,40)" id="g10"><g id="g12"><g clip-path="url(#clipPath18)" id="g14"><g transform="translate(15.0001,3.192)" id="g20"><path id="path22" style="fill:#000000;fill-opacity:1;fill-rule:nonzero;stroke:none" d="m 0,0 c -6.511,0 -11.809,5.297 -11.809,11.808 0,6.511 5.298,11.808 11.809,11.808 6.511,0 11.809,-5.297 11.809,-11.808 C 11.809,5.297 6.511,0 0,0 m 0,26.808 c -8.271,0 -15,-6.729 -15,-15 0,-8.271 6.729,-15 15,-15 8.271,0 15,6.729 15,15 0,8.271 -6.729,15 -15,15"/></g><g transform="translate(24.6026,15.1221)" id="g24"><path id="path26" style="fill:none;stroke:#000000;stroke-width:2.76399994;stroke-linecap:round;stroke-linejoin:round;stroke-miterlimit:10;stroke-dasharray:none;stroke-opacity:1" d="m 0,0 -9.655,-0.04 6.454,-1.772"/></g></g></g></g></symbol>
<symbol id="time-16-00" viewBox="0 0 40 40"><metadata id="metadata8"><rdf:RDF><cc:Work rdf:about=""><dc:format>image/svg+xml</dc:format><dc:type rdf:resource="http://purl.org/dc/dcmitype/StillImage"/><dc:title/></cc:Work></rdf:RDF></metadata><g transform="matrix(1.3333333,0,0,-1.3333333,0,40)" id="g10"><g id="g12"><g clip-path="url(#clipPath18)" id="g14"><g transform="translate(15.0001,3.1915)" id="g20"><path id="path22" style="fill:#000000;fill-opacity:1;fill-rule:nonzero;stroke:none" d="m 0,0 c -6.511,0 -11.809,5.297 -11.809,11.809 0,6.511 5.298,11.808 11.809,11.808 6.511,0 11.809,-5.297 11.809,-11.808 C 11.809,5.297 6.511,0 0,0 m 0,26.809 c -8.271,0 -15,-6.729 -15,-15 0,-8.271 6.729,-15 15,-15 8.271,0 15,6.729 15,15 0,8.271 -6.729,15 -15,15"/></g><g transform="translate(15.0318,24.2472)" id="g24"><path id="path26" style="fill:none;stroke:#000000;stroke-width:2.76399994;stroke-linecap:round;stroke-linejoin:round;stroke-miterlimit:10;stroke-dasharray:none;stroke-opacity:1" d="m 0,0 -0.084,-9.165 6.085,-3.1"/></g></g></g></g></symbol>
<symbol id="time-16-30" viewBox="0 0 40 40"><metadata id="metadata8"><rdf:RDF><cc:Work rdf:about=""><dc:format>image/svg+xml</dc:format><dc:type rdf:resource="http://purl.org/dc/dcmitype/StillImage"/><dc:title/></cc:Work></rdf:RDF></metadata><g transform="matrix(1.3333333,0,0,-1.3333333,0,40)" id="g10"><g id="g12"><g clip-path="url(#clipPath18)" id="g14"><g transform="translate(15.0001,3.1918)" id="g20"><path id="path22" style="fill:#000000;fill-opacity:1;fill-rule:nonzero;stroke:none" d="m 0,0 c -6.511,0 -11.809,5.297 -11.809,11.808 0,6.511 5.298,11.808 11.809,11.808 6.511,0 11.809,-5.297 11.809,-11.808 C 11.809,5.297 6.511,0 0,0 m 0,26.808 c -8.271,0 -15,-6.729 -15,-15 0,-8.271 6.729,-15 15,-15 8.271,0 15,6.729 15,15 0,8.271 -6.729,15 -15,15"/></g><g transform="translate(15.0318,5.7304)" id="g24"><path id="path26" style="fill:none;stroke:#000000;stroke-width:2.76399994;stroke-linecap:round;stroke-linejoin:round;stroke-miterlimit:10;stroke-dasharray:none;stroke-opacity:1" d="M 0,0 -0.084,9.352 5.261,5.038"/></g></g></g></g></symbol>
<symbol id="time-16-50" viewBox="0 0 40 40"><metadata id="metadata8"><rdf:RDF><cc:Work rdf:about=""><dc:format>image/svg+xml</dc:format><dc:type rdf:resource="http://purl.org/dc/dcmitype/StillImage"/><dc:title/></cc:Work></rdf:RDF></metadata><g transform="matrix(1.3333333,0,0,-1.3333333,0,40)" id="g10"><g id="g12"><g clip-path="url(#clipPath18)" id="g14"><g transform="translate(15.0001,3.1918)" id="g20"><path id="path22" style="fill:#000000;fill-opacity:1;fill-rule:nonzero;stroke:none" d="m 0,0 c -6.511,0 -11.809,5.297 -11.809,11.808 0,6.511 5.298,11.809 11.809,11.809 6.511,0 11.809,-5.298 11.809,-11.809 C 11.809,5.297 6.511,0 0,0 m 0,26.808 c -8.271,0 -15,-6.729 -15,-15 0,-8.271 6.729,-15 15,-15 8.271,0 15,6.729 15,15 0,8.271 -6.729,15 -15,15"/></g><g transform="translate(6.9864,19.1766)" id="g24"><path id="path26" style="fill:none;stroke:#000000;stroke-width:2.76399994;stroke-linecap:round;stroke-linejoin:round;stroke-miterlimit:10;stroke-dasharray:none;stroke-opacity:1" d="m 0,0 7.961,-4.095 4.398,-5.12"/></g></g></g></g></symbol>
<symbol id="time-17-00" viewBox="0 0 40 40"><metadata id="metadata8"><rdf:RDF><cc:Work rdf:about=""><dc:format>image/svg+xml</dc:format><dc:type rdf:resource="http://purl.org/dc/dcmitype/StillImage"/><dc:title/></cc:Work></rdf:RDF></metadata><g transform="matrix(1.3333333,0,0,-1.3333333,0,40)" id="g10"><g id="g12"><g clip-path="url(#clipPath18)" id="g14"><g transform="translate(15.0001,3.192)" id="g20"><path id="path22" style="fill:#000000;fill-opacity:1;fill-rule:nonzero;stroke:none" d="m 0,0 c -6.511,0 -11.809,5.297 -11.809,11.808 0,6.511 5.298,11.808 11.809,11.808 6.511,0 11.809,-5.297 11.809,-11.808 C 11.809,5.297 6.511,0 0,0 m 0,26.808 c -8.271,0 -15,-6.729 -15,-15 0,-8.271 6.729,-15 15,-15 8.271,0 15,6.729 15,15 0,8.271 -6.729,15 -15,15"/></g><g transform="translate(15.0318,24.2691)" id="g24"><path id="path26" style="fill:none;stroke:#000000;stroke-width:2.76399994;stroke-linecap:round;stroke-linejoin:round;stroke-miterlimit:10;stroke-dasharray:none;stroke-opacity:1" d="m 0,0 -0.084,-9.187 3.551,-5.806"/></g></g></g></g></symbol>
<symbol id="time-18-00" viewBox="0 0 40 38.812401"><metadata id="metadata8"><rdf:RDF><cc:Work rdf:about=""><dc:format>image/svg+xml</dc:format><dc:type rdf:resource="http://purl.org/dc/dcmitype/StillImage"/><dc:title/></cc:Work></rdf:RDF></metadata><g transform="matrix(1.3333333,0,0,-1.3333333,0,38.8124)" id="g10"><g id="g12"><g clip-path="url(#clipPath18)" id="g14"><g transform="translate(15.0001,3.0971)" id="g20"><path id="path22" style="fill:#000000;fill-opacity:1;fill-rule:nonzero;stroke:none" d="m 0,0 c -6.511,0 -11.809,5.14 -11.809,11.458 0,6.317 5.298,11.457 11.809,11.457 6.511,0 11.809,-5.14 11.809,-11.457 C 11.809,5.14 6.511,0 0,0 m 0,26.012 c -8.271,0 -15,-6.529 -15,-14.554 0,-8.026 6.729,-14.555 15,-14.555 8.271,0 15,6.529 15,14.555 0,8.025 -6.729,14.554 -15,14.554"/></g><g transform="translate(15.0318,23.5487)" id="g24"><path id="path26" style="fill:none;stroke:#000000;stroke-width:2.72300005;stroke-linecap:round;stroke-linejoin:round;stroke-miterlimit:10;stroke-dasharray:none;stroke-opacity:1" d="M 0,0 -0.084,-8.915 0,-15.176"/></g></g></g></g></symbol>
<symbol id="time-8-00" viewBox="0 0 40 40"><metadata id="metadata8"><rdf:RDF><cc:Work rdf:about=""><dc:format>image/svg+xml</dc:format><dc:type rdf:resource="http://purl.org/dc/dcmitype/StillImage"/><dc:title/></cc:Work></rdf:RDF></metadata><g transform="matrix(1.3333333,0,0,-1.3333333,0,40)" id="g10"><g id="g12"><g clip-path="url(#clipPath18)" id="g14"><g transform="translate(15.0001,3.1918)" id="g20"><path id="path22" style="fill:#000000;fill-opacity:1;fill-rule:nonzero;stroke:none" d="m 0,0 c -6.511,0 -11.809,5.297 -11.809,11.808 0,6.511 5.298,11.809 11.809,11.809 6.511,0 11.809,-5.298 11.809,-11.809 C 11.809,5.297 6.511,0 0,0 m 0,26.808 c -8.271,0 -15,-6.729 -15,-15 0,-8.271 6.729,-15 15,-15 8.271,0 15,6.729 15,15 0,8.271 -6.729,15 -15,15"/></g><g transform="translate(14.9473,23.3905)" id="g24"><path id="path26" style="fill:none;stroke:#000000;stroke-width:2.76399994;stroke-linecap:round;stroke-linejoin:round;stroke-miterlimit:10;stroke-dasharray:none;stroke-opacity:1" d="m 0,0 v -8.309 l -4.951,-2.746"/></g></g></g></g></symbol>
<symbol id="time-9-15" viewBox="0 0 40 40"><metadata id="metadata8"><rdf:RDF><cc:Work rdf:about=""><dc:format>image/svg+xml</dc:format><dc:type rdf:resource="http://purl.org/dc/dcmitype/StillImage"/><dc:title/></cc:Work></rdf:RDF></metadata><g transform="matrix(1.3333333,0,0,-1.3333333,0,40)" id="g10"><g id="g12"><g clip-path="url(#clipPath18)" id="g14"><g transform="translate(15.0001,3.1915)" id="g20"><path id="path22" style="fill:#000000;fill-opacity:1;fill-rule:nonzero;stroke:none" d="m 0,0 c -6.511,0 -11.809,5.297 -11.809,11.809 0,6.511 5.298,11.808 11.809,11.808 6.511,0 11.809,-5.297 11.809,-11.808 C 11.809,5.297 6.511,0 0,0 m 0,26.809 c -8.271,0 -15,-6.729 -15,-15 0,-8.271 6.729,-15 15,-15 8.271,0 15,6.729 15,15 0,8.271 -6.729,15 -15,15"/></g><g transform="translate(23.5972,15.1217)" id="g24"><path id="path26" style="fill:none;stroke:#000000;stroke-width:2.76399994;stroke-linecap:round;stroke-linejoin:round;stroke-miterlimit:10;stroke-dasharray:none;stroke-opacity:1" d="m 0,0 -8.65,-0.04 -6.44,0.772"/></g></g></g></g></symbol>
<symbol id="time-9-30" viewBox="0 0 40 40"><metadata id="metadata8"><rdf:RDF><cc:Work rdf:about=""><dc:format>image/svg+xml</dc:format><dc:type rdf:resource="http://purl.org/dc/dcmitype/StillImage"/><dc:title/></cc:Work></rdf:RDF></metadata><g transform="matrix(1.3333333,0,0,-1.3333333,0,40)" id="g10"><g id="g12"><g clip-path="url(#clipPath18)" id="g14"><g transform="translate(15.0001,3.1919)" id="g20"><path id="path22" style="fill:#000000;fill-opacity:1;fill-rule:nonzero;stroke:none" d="m 0,0 c -6.511,0 -11.809,5.297 -11.809,11.808 0,6.511 5.298,11.808 11.809,11.808 6.511,0 11.809,-5.297 11.809,-11.808 C 11.809,5.297 6.511,0 0,0 m 0,26.808 c -8.271,0 -15,-6.729 -15,-15 0,-8.271 6.729,-15 15,-15 8.271,0 15,6.729 15,15 0,8.271 -6.729,15 -15,15"/></g><g transform="translate(15.0318,6.4483)" id="g24"><path id="path26" style="fill:none;stroke:#000000;stroke-width:2.76399994;stroke-linecap:round;stroke-linejoin:round;stroke-miterlimit:10;stroke-dasharray:none;stroke-opacity:1" d="m 0,0 -0.084,8.634 -6.44,1.245"/></g></g></g></g></symbol>
<symbol id="tw" viewBox="0 0 17.2 14" preserveAspectRatio="none">

<path fill="#FFFFFF" d="M11.9,0C9.9,0,8.4,1.6,8.4,3.5c0,0.3,0,0.5,0.1,0.8C5.5,4.2,2.9,2.8,1.2,0.6C0.9,1.2,0.7,1.8,0.7,2.4
    c0,1.2,0.6,2.3,1.6,2.9c-0.6,0-1.1-0.2-1.6-0.4c0,0,0,0,0,0c0,1.7,1.2,3.1,2.8,3.5C3.2,8.5,2.9,8.5,2.6,8.5c-0.2,0-0.4,0-0.7-0.1
    c0.4,1.4,1.8,2.4,3.3,2.5c-1.2,0.9-2.7,1.5-4.4,1.5c-0.3,0-0.6,0-0.8,0c1.6,1,3.4,1.6,5.4,1.6c6.5,0,10-5.4,10-10c0-0.2,0-0.3,0-0.5
    c0.7-0.5,1.3-1.1,1.8-1.8c-0.6,0.3-1.3,0.5-2,0.6c0.7-0.4,1.3-1.1,1.5-2C16,0.7,15.3,1,14.5,1.1C13.8,0.4,12.9,0,11.9,0"/>
</symbol>
</svg>