<svg version="1.1"
	 xmlns="http://www.w3.org/2000/svg" xmlns:xlink="http://www.w3.org/1999/xlink" xmlns:a="http://ns.adobe.com/AdobeSVGViewerExtensions/3.0/"
	 x="0px" y="0px" viewBox="0 0 110.5 89.8" enable-background="new 0 0 110.5 89.8"
	 xml:space="preserve">
<defs>
</defs>
<path fill="#FFFFFF" d="M34.7,89.8c41.7,0,64.5-34.5,64.5-64.5c0-1,0-2-0.1-2.9c4.4-3.2,8.3-7.2,11.3-11.7c-4.1,1.8-8.4,3-13,3.6
	c4.7-2.8,8.3-7.2,10-12.5C103,4.3,98.2,6.1,93,7.2C88.9,2.8,83,0,76.5,0C64,0,53.8,10.2,53.8,22.7c0,1.8,0.2,3.5,0.6,5.2
	c-18.8-0.9-35.5-10-46.7-23.7c-1.9,3.3-3.1,7.2-3.1,11.4c0,7.9,4,14.8,10.1,18.9c-3.7-0.1-7.2-1.1-10.3-2.8c0,0.1,0,0.2,0,0.3
	c0,11,7.8,20.1,18.2,22.2c-1.9,0.5-3.9,0.8-6,0.8c-1.5,0-2.9-0.1-4.3-0.4c2.9,9,11.3,15.6,21.2,15.7c-7.8,6.1-17.5,9.7-28.1,9.7
	c-1.8,0-3.6-0.1-5.4-0.3C10,86,21.9,89.8,34.7,89.8"/>
</svg>